<?xml version="1.0" standalone="no"?><!DOCTYPE svg PUBLIC "-//W3C//DTD SVG 1.1//EN" "http://www.w3.org/Graphics/SVG/1.1/DTD/svg11.dtd"><svg t="1623408775958" class="icon" viewBox="0 0 1024 1024" version="1.1" xmlns="http://www.w3.org/2000/svg" p-id="6283" xmlns:xlink="http://www.w3.org/1999/xlink" width="200" height="200"><defs><style type="text/css"></style></defs><path d="M853.9 647.7c-2.8 0-5.6-0.4-8.4-1.2-15.9-4.6-25-21.3-20.4-37.2 8.6-29.3 12.9-59.9 12.9-90.7 0-178.3-145-323.3-323.3-323.3-87.5 0-169.4 34.4-230.7 96.8-11.6 11.8-30.6 12-42.4 0.4-11.8-11.6-12-30.6-0.4-42.4 35.3-35.9 76.6-64.2 122.7-83.9 47.7-20.5 98.5-30.8 150.9-30.8 51.7 0 101.9 10.1 149.2 30.1 45.6 19.3 86.6 46.9 121.8 82.1 35.2 35.2 62.8 76.2 82.1 121.8 20 47.3 30.1 97.5 30.1 149.2 0 36.6-5.1 72.7-15.3 107.5-3.9 13.1-15.8 21.6-28.8 21.6zM513.2 901.4c-51.7 0-101.9-10.1-149.2-30.1-45.6-19.3-86.6-46.9-121.8-82.1C207 754 179.4 713 160.1 667.4c-20-47.3-30.1-97.5-30.1-149.2 0-42.4 6.9-84.2 20.5-124 5.4-15.7 22.4-24 38.1-18.7 15.7 5.4 24 22.4 18.7 38.1-11.5 33.6-17.3 68.7-17.3 104.6 0 178.3 145 323.3 323.3 323.3 87.5 0 169.4-34.4 230.7-96.8 11.6-11.8 30.6-12 42.4-0.4 11.8 11.6 12 30.6 0.4 42.4-35.3 35.9-76.6 64.2-122.7 83.9-47.8 20.4-98.5 30.8-150.9 30.8z" p-id="6284" fill="#ffffff"></path><path d="M841.2 701c-7.9 0-15.8-3.8-20.6-10.8-7.8-11.4-5-26.9 6.4-34.8l97.5-67.2c11.4-7.8 26.9-5 34.8 6.4 7.8 11.4 5 26.9-6.4 34.8l-97.5 67.2c-4.4 2.9-9.3 4.4-14.2 4.4z" p-id="6285" fill="#ffffff"></path><path d="M838.8 700.5c-7.9 0-15.8-3.8-20.6-10.8L751 592.2c-7.8-11.4-5-26.9 6.4-34.8 11.4-7.8 26.9-5 34.8 6.4l67.2 97.5c7.8 11.4 5 26.9-6.4 34.8-4.4 3-9.3 4.4-14.2 4.4z" p-id="6286" fill="#ffffff"></path><path d="M92.3 447c-7.9 0-15.8-3.8-20.6-10.8-7.8-11.4-5-26.9 6.4-34.8l97.5-67.2c11.4-7.8 26.9-5 34.8 6.4 7.8 11.4 5 26.9-6.4 34.8l-97.5 67.2c-4.4 3-9.4 4.4-14.2 4.4z" p-id="6287" fill="#ffffff"></path><path d="M259.3 477.8c-7.9 0-15.8-3.8-20.6-10.8l-67.2-97.5c-7.8-11.4-5-26.9 6.4-34.8 11.4-7.8 26.9-5 34.8 6.4l67.2 97.5c7.8 11.4 5 26.9-6.4 34.8-4.4 2.9-9.3 4.4-14.2 4.4z" p-id="6288" fill="#ffffff"></path></svg>