<?xml version="1.0" standalone="no"?><!DOCTYPE svg PUBLIC "-//W3C//DTD SVG 1.1//EN" "http://www.w3.org/Graphics/SVG/1.1/DTD/svg11.dtd"><svg t="1623407618585" class="icon" viewBox="0 0 1024 1024" version="1.1" xmlns="http://www.w3.org/2000/svg" p-id="4797" xmlns:xlink="http://www.w3.org/1999/xlink" width="200" height="200"><defs><style type="text/css"></style></defs><path d="M293.461333 981.333333c-64.512 0-124.373333-24.576-168.917333-70.613333a235.818667 235.818667 0 0 1-69.12-167.381333c0-64.469333 24.618667-124.373333 70.656-168.917334l118.229333-118.186666c18.432-18.432 47.616-18.432 64.512 0 18.432 18.389333 18.432 47.573333 0 64.469333l-118.229333 118.186667a146.261333 146.261333 0 0 0-43.008 104.448c0 39.936 15.36 75.221333 43.008 104.405333a146.218667 146.218667 0 0 0 104.405333 43.008c38.4 0 75.221333-15.36 104.405334-43.008l150.485333-150.485333a147.370667 147.370667 0 0 0 0-207.274667 169.216 169.216 0 0 0-43.008-30.72c-23.04-10.709333-33.792-38.4-23.04-61.397333 10.752-23.04 38.4-33.792 61.44-23.04 26.069333 12.288 50.645333 27.648 70.613333 49.152a238.165333 238.165333 0 0 1 0 337.792l-150.485333 150.485333C417.834667 956.757333 357.973333 981.333333 293.461333 981.333333z" p-id="4798"></path><path d="M513.024 666.581333a40.917333 40.917333 0 0 1-18.432-4.608c-26.112-12.288-50.688-27.648-70.613333-49.152a238.165333 238.165333 0 0 1-70.656-168.874666c0-64.512 24.576-124.373333 70.656-168.917334l150.442666-150.485333a238.165333 238.165333 0 0 1 337.834667 0 238.165333 238.165333 0 0 1 0 337.792l-118.229333 118.229333c-18.432 18.432-47.616 18.432-64.512 0-18.432-18.389333-18.432-47.573333 0-64.469333l118.229333-118.229333a147.370667 147.370667 0 0 0 0-207.274667 147.370667 147.370667 0 0 0-207.274667 0l-150.485333 150.485333a146.261333 146.261333 0 0 0-43.008 104.405334c0 39.893333 15.36 75.221333 43.008 104.405333 12.288 12.288 27.648 23.04 43.008 30.72 23.04 10.709333 33.749333 38.4 23.04 61.397333-9.216 15.36-26.112 24.576-43.008 24.576z" p-id="4799"></path></svg>