<?xml version="1.0" standalone="no"?><!DOCTYPE svg PUBLIC "-//W3C//DTD SVG 1.1//EN" "http://www.w3.org/Graphics/SVG/1.1/DTD/svg11.dtd"><svg t="1624258296062" class="icon" viewBox="0 0 1024 1024" version="1.1" xmlns="http://www.w3.org/2000/svg" p-id="2377" xmlns:xlink="http://www.w3.org/1999/xlink" width="200" height="200"><defs><style type="text/css"></style></defs><path d="M691.2 588.8a25.6 25.6 0 0 1-18.1248-43.6736l157.0816-157.0816c25.9584-25.9584 40.2432-60.416 40.2432-97.0752s-14.2848-71.168-40.2432-97.0752a137.472 137.472 0 0 0-194.2016 0L478.8736 350.976a25.6 25.6 0 0 1-36.1984-36.1984l157.0816-157.0816a188.672 188.672 0 0 1 266.5984 0c35.584 35.584 55.1936 82.944 55.1936 133.3248s-19.6096 97.6896-55.1936 133.3248l-157.0816 157.0816a25.6 25.6 0 0 1-18.1248 7.5264zM239.7184 972.8a187.4944 187.4944 0 0 1-133.3248-55.1936 188.672 188.672 0 0 1 0-266.5984l157.0816-157.0816a25.6 25.6 0 0 1 36.1984 36.1984l-157.0816 157.0816a137.472 137.472 0 0 0 97.0752 234.4448c36.6592 0 71.168-14.2848 97.0752-40.2432l157.0816-157.0816a25.6 25.6 0 0 1 36.1984 36.1984l-157.0816 157.0816A187.3408 187.3408 0 0 1 239.616 972.8zM281.6 358.4a25.7024 25.7024 0 0 1-18.1248-7.4752l-102.4-102.4a25.6 25.6 0 0 1 36.1984-36.1984l102.4 102.4A25.6 25.6 0 0 1 281.5488 358.4zM384 307.2a25.6 25.6 0 0 1-25.6-25.6v-153.6a25.6 25.6 0 0 1 51.2 0v153.6a25.6 25.6 0 0 1-25.6 25.6zM230.4 460.8h-153.6a25.6 25.6 0 0 1 0-51.2h153.6a25.6 25.6 0 0 1 0 51.2zM793.6 870.4a25.7024 25.7024 0 0 1-18.1248-7.4752l-102.4-102.4a25.6 25.6 0 0 1 36.1984-36.1984l102.4 102.4a25.6 25.6 0 0 1-18.1248 43.6736zM896 665.6h-153.6a25.6 25.6 0 0 1 0-51.2h153.6a25.6 25.6 0 0 1 0 51.2zM588.8 972.8a25.6 25.6 0 0 1-25.6-25.6v-153.6a25.6 25.6 0 0 1 51.2 0v153.6a25.6 25.6 0 0 1-25.6 25.6z" p-id="2378" fill="#ffffff"></path></svg>